<svg xmlns="http://www.w3.org/2000/svg" width="255.351" height="424.781" viewBox="0 0 255.351 424.781"><defs><style>.a{fill:#2f2e41;}.b{fill:#ffb8b8;}.c{fill:#00a110;}.d{fill:#f2f2f2;}.e{fill:#3f3d56;}</style></defs><g transform="translate(-1392.315 -1886.606)"><circle class="a" cx="31" cy="31" r="31" transform="translate(1506 1907.042)"/><path class="b" d="M720.448,513.471a10.743,10.743,0,0,0,14.424-7.956l85.237-53.779L804.595,434.27,725.651,492.66a10.8,10.8,0,0,0-5.2,20.811Z" transform="translate(678.833 1566.042)"/><path class="a" d="M802.313,466.034a4.5,4.5,0,0,1-3.793-2.063l-9.871-15.339a4.5,4.5,0,0,1,1.148-6.082l33.03-23.873a14.789,14.789,0,1,1,16.63,24.445l-34.729,22.205A4.467,4.467,0,0,1,802.313,466.034Z" transform="translate(678.833 1566.042)"/><path class="b" d="M585.894,580.85H573.635L567.8,533.561H585.9Z" transform="translate(910 1719.042)"/><path class="a" d="M564.877,577.346h23.644v14.887h-38.53A14.887,14.887,0,0,1,564.877,577.346Z" transform="translate(910 1719.042)"/><path class="b" d="M643.128,571.684,631.324,575l-18.4-43.951,17.421-4.891Z" transform="translate(910 1719.042)"/><path class="a" d="M854.962,725.531h23.644v14.887h-38.53A14.887,14.887,0,0,1,854.962,725.531Z" transform="translate(512.712 1825.575) rotate(-15.68)"/><path class="c" d="M907.327,652.113l-47.6-56.171L888.612,560.9a4.5,4.5,0,0,1,6.961.021l43.7,53.634Z" transform="translate(678.833 1566.042)"/><path class="d" d="M861.651,596.36h0a15.945,15.945,0,0,1,2.586-3.453L891.8,564.959a6.133,6.133,0,0,1,4.076-1.83c3.15-.149,8.316.17,9.756,3.625l-37.218,30.451Z" transform="translate(678.833 1566.042)"/><path class="c" d="M908.981,664a11.431,11.431,0,0,1-5.958-1.887l-.132-.136L859.3,595.308l7.233-.7L905.3,564.37a4.5,4.5,0,0,1,6.522,1.067L954.2,629.575a4.513,4.513,0,0,1-1.238,6.211l-41.006,27.65a7.948,7.948,0,0,1-2.974.562Z" transform="translate(678.833 1566.042)"/><path class="e" d="M893.564,618.394a2.5,2.5,0,0,1-2.077-1.1l-5.008-7.438a2.5,2.5,0,0,1,.678-3.471l25.691-17.3a2.5,2.5,0,0,1,3.47.678l5.008,7.438a2.5,2.5,0,0,1-.678,3.471l-25.691,17.3a2.491,2.491,0,0,1-1.393.425Z" transform="translate(678.833 1566.042)"/><path class="a" d="M797.029,726.7a5.479,5.479,0,0,1-5.439-5c-2.182-24.785-13.127-149.7-14.328-174.927-1.334-28.029,21.993-72.371,22.229-72.815l.161-.3,11.53,1.44v1.341l10.974,1.291,21.238,2.056,6.08,74.318,2.688,50.4,25.26,102.943a4.476,4.476,0,0,1-3.186,5.414l-21.983,6a4.519,4.519,0,0,1-5.512-3.109l-20.7-72.707a1.5,1.5,0,0,0-2.942.457l2.189,70.9a5.344,5.344,0,0,1-1.617,3.912c-5.039,4.732-18.353,7.259-25.841,8.344a5.561,5.561,0,0,1-.8.058Z" transform="translate(678.833 1566.042)"/><path class="c" d="M863.086,414.392c-3.488-3.636-26.473,1.361-31.576,6.718l-34.936,57.106,57.778,10.749,12.765-72.558Z" transform="translate(678.833 1566.042)"/><path class="a" d="M847.942,559.479a11.248,11.248,0,0,1-3.657-.609c-3.357-1.151-7.471-2.356-12.227-3.579-20.834-5.357-28.189-22.51-21.862-50.98l.16-.723a210.735,210.735,0,0,1,32.956-75.262l2.45-3.52a26.4,26.4,0,0,1,27.045-10.756c9.374,1.934,14.407,4.735,14.96,8.328,1.085,7.05-19.854,92.27-28.907,128.582a11.235,11.235,0,0,1-10.918,8.52Z" transform="translate(678.833 1566.042)"/><path class="a" d="M776.171,548.539a5.28,5.28,0,0,1-1.6-.25l-6.753-2.16a5.269,5.269,0,0,1-3.241-7.082l35.831-84.1a78.693,78.693,0,0,1,34.123-37.827h0a1.842,1.842,0,0,1,1.461-.137,1.657,1.657,0,0,1,1,.892c4.214,9.271-18.722,53.144-37.152,88.4-9.437,18.051-17.587,33.641-18.515,38.086a5.263,5.263,0,0,1-5.156,4.187Z" transform="translate(678.833 1566.042)"/><path class="b" d="M887.026,567.7a10.743,10.743,0,0,0,.921-16.447l-.285-100.784-23.04,3.866,7.536,97.9A10.8,10.8,0,0,0,887.026,567.7Z" transform="translate(678.833 1566.042)"/><path class="a" d="M868.266,475.477a4.5,4.5,0,0,1-4.488-4.2l-2.68-40.667a14.789,14.789,0,1,1,29.546-1.1l.364,41.22a4.509,4.509,0,0,1-4.447,4.54l-18.239.214Z" transform="translate(678.833 1566.042)"/><circle class="b" cx="24.561" cy="24.561" r="24.561" transform="translate(1506.053 1921.497)"/><path class="a" d="M872.2,397.2c1.832-5.83,3.514-12.7-.112-17.622-2.612-3.545-7.3-4.917-11.7-5.113s-8.81.549-13.2.2-9.028-2.081-11.258-5.878c-2.891-4.923-.442-11.7,4.206-15.02s10.788-3.778,16.445-3.006a35.477,35.477,0,0,1,19.292,8.63c5.258,4.853,8.685,11.848,8.533,19s-4.165,14.278-10.559,17.49" transform="translate(678.833 1566.042)"/><path class="a" d="M866.079,343.534c-5.88-1.811-8.592-9.585-5.962-15.147s9.351-8.475,15.454-7.7,11.481,4.69,15.191,9.6,5.947,10.759,7.812,16.622,3.416,11.853,5.963,17.453a54.168,54.168,0,0,0,44.45,30.943c4.129.3,8.414.085,12.177-1.641s6.919-5.205,7.34-9.324c2.142,14.629-6.369,30.176-19.846,36.255s-30.765,2.168-40.313-9.12c-9.331-11.031-10.776-26.605-10.552-41.052.062-3.962.208-8-.887-11.806s-3.685-7.429-7.458-8.638c-3.044-.976-6.341-.272-9.462.419s-6.435,1.358-9.457.315-5.455-4.479-4.237-7.435" transform="translate(678.833 1566.042)"/></g></svg>