<svg xmlns="http://www.w3.org/2000/svg" width="669.174" height="511.628" viewBox="0 0 669.174 511.628"><defs><style>.a{fill:#f2f2f2;}.b{fill:#ccc;}.c{fill:#e6e6e6;}.d{fill:#ffb6b6;}.e{fill:#2f2e41;}.f{fill:#00a110;}.g{fill:#ffb7b7;}.h{fill:#fd6584;}.i{fill:#fff;}.j{fill:#3f3d56;}.k{fill:#ff6582;}</style></defs><g transform="translate(-0.002)"><path class="a" d="M889.314,635.23l1.144-25.719A83.066,83.066,0,0,1,929.2,599.7c-18.608,15.214-16.283,44.541-28.9,65a49.964,49.964,0,0,1-36.639,23.089l-15.572,9.534a83.724,83.724,0,0,1,17.647-67.845,80.876,80.876,0,0,1,14.863-13.81C884.332,625.505,889.314,635.23,889.314,635.23Z" transform="translate(-265.412 -194.186)"/><path class="a" d="M653.173,703.729c-7.931-.564-10,1-22,0h-22l2.862-52.648,34.634,13.878,172.114,4.225-.1.292c-.078.225-7.719,22.577-1.746,31.042l.248.35-.483,0L658.813,702.32C657.089,702.336,654.883,703.85,653.173,703.729Z" transform="translate(-265.412 -194.186)"/><path class="b" d="M662.1,704.417c-15.322-1.09-31.187,4.866-44.428-1.858l-10.585.641-.03-.089c-.082-.244-5.082-39.586,5.026-54.839l.445-.672.348,3.613-3.332,49.008,7.385-2.465c17.937,8.443,39.27,2.867,59.8,2.789l139.714-.516c2.927-.01,5.365,1.99,5.443,4.459l.008.241-151.354-.012Q666.306,704.717,662.1,704.417Z" transform="translate(-265.412 -194.186)"/><path class="c" d="M543.667,485.616,386.44,482.491l-.161-.06-37.147-13.922.7-1.873L386.821,480.5l156.886,3.117Z"/><path class="c" d="M542.828,494.035,385.6,490.91l-.16-.06-37.148-13.922.7-1.873,36.988,13.863,156.885,3.117Z"/><path class="c" d="M541.989,502.455l-157.227-3.126-.16-.06-37.148-13.923.7-1.873,36.988,13.864,156.885,3.118Z"/><path class="c" d="M663.187,669.727a105.219,105.219,0,0,1-41.733-11.775l-10.9-5.78.285-2.857a1.729,1.729,0,0,1,1.838-1.4l.962.012,146.628,2.158a85.932,85.932,0,0,1,28.133,5.106l31.948,11.6-.017.169c-.268,2.692-2.983,4.772-6.18,4.735L669.718,670Q666.441,669.96,663.187,669.727Z" transform="translate(-265.412 -194.186)"/><path class="b" d="M554.63,473.22l-.033,0-175.834-4.029-.122-.056-31.7-14.681.322-.491.963.012,30.833,14.286,174.2,3.988,1.4.033Z"/><path class="b" d="M683.347,649.186l-2.232-.032-50.392-.745-2.388-.033c11.514,12.258,36.972,15.325,74.288,10.576Z" transform="translate(-265.412 -194.186)"/><path class="d" d="M559.613,161.814l3.074,7.151-5.024,25.4-51.255-7.126.409-30.967,1.029-6.782Z"/><path class="d" d="M586.094,490.943H574.786L569.4,447.327h16.69Z"/><path class="e" d="M817.87,699.891a4.835,4.835,0,0,0,4.831,4.831h21.513l3.708-7.655,1.44,7.655h8.109l-2.279-27.342-3.686-.215-12.384-.737-2-.125v7.746L819.957,695.91A4.838,4.838,0,0,0,817.87,699.891Z" transform="translate(-265.412 -194.186)"/><path class="d" d="M481.576,440.943H470.268l-6.652-64.213,21.247-1.269Z"/><path class="e" d="M713.352,649.891a4.835,4.835,0,0,0,4.831,4.831H739.7l3.708-7.655,1.44,7.655h8.109l-2.279-27.342-3.289-.193-12.6-.76-2.177-.125v7.746l-17.17,11.862A4.838,4.838,0,0,0,713.352,649.891Z" transform="translate(-265.412 -194.186)"/><path class="e" d="M856.306,647.516h-.044L854.087,576.6a18.544,18.544,0,0,0-.243-17.524l-.311-.564.807-3.742a23.837,23.837,0,0,0-1.362-14.346l-2.029-66.154c7.248-46.974-27.294-77.609-27.294-77.609l3.175-24.621-55.87,1.27.95,23.351L760.8,434.827c-5.846,56.96-45.194,92.762-39.214,147.231a1.039,1.039,0,0,1-.068.46,13.906,13.906,0,0,0,1.123,11.222,4.241,4.241,0,0,1,.506,1.392c1.232,9.549,1.393-2.53,3.025,6.935l-.318.161c-1.144.395-1.635,1.98-1.1,3.54s1.9,2.5,3.046,2.11l29.867.319c1.144-.395,1.635-1.98,1.1-3.54s-1.9-2.5-3.046-2.11l-1.858.94,3.109-10.171,1.09-1.017a4.737,4.737,0,0,0-.6-7.4h0l3.1-16.528-.44-12.5.906-14.181L800.212,484.9l15.855,78.438,16.2,84.964a2.968,2.968,0,0,0-.929,2.753,3.077,3.077,0,0,0,3.066,2.435h21.986a2.995,2.995,0,0,0,2.884-3.791,3.031,3.031,0,0,0-2.963-2.187Z" transform="translate(-265.412 -194.186)"/><path class="e" d="M836.755,235.326a27.662,27.662,0,1,1-47.578-19.186l.133-.133c.221-.232.443-.465.675-.686a.011.011,0,0,0,.008,0,.011.011,0,0,0,0-.008,5.809,5.809,0,0,0,.874-.786c3.734-5.218,7.968-9.593,18.223-6.86C823.858,211.6,836.755,220.046,836.755,235.326Z" transform="translate(-265.412 -194.186)"/><path class="d" d="M684.8,223.484a10.132,10.132,0,0,0,11.479,10.47L767.621,292.5l10.9-19.152-73.549-51.527a10.187,10.187,0,0,0-20.164,1.662Z" transform="translate(-265.412 -194.186)"/><path class="f" d="M797.743,309.767s-.022-2.109-11.362-2.027c-14.077.1-52.846-20.109-49.454-39.142a7.96,7.96,0,0,1-9.49-2.276l18.874-18.172c5.923.4,5.983,4.363,5.476,6.639l15.168,6.027,39.506,22.7-6.976,22.8Z" transform="translate(-265.412 -194.186)"/><circle class="g" cx="23.195" cy="23.195" r="23.195" transform="translate(513.671 24.345)"/><path class="f" d="M770.4,357.1a9.312,9.312,0,0,0,.454,11.726c.011.68.113,1.338,1.077,3.776a4.27,4.27,0,0,0,.442.669,1.658,1.658,0,0,0,.1.147,7.711,7.711,0,0,0,4.026,2.71l42.459,11.851,5.614,1.565.987.272.544-7.666a6.865,6.865,0,0,0,1.508-8.812l-.782-1.293,4.559-12.259.442-1.213,11.624-31.289.011-2.087.023-2.155L843.6,308a30.676,30.676,0,0,0-12.135-24.473,30.147,30.147,0,0,0-11.624-5.443l-.091-.011-4.593-6.181-18.633,1.86-1.542,3.164-1.871,3.81-13.507,8.04L774.992,299.5l-3.119,7.258c-4.831,3.47-7.712,7.927-8.539,13.234-1.769,11.273,6.124,22.556,7.065,23.849l.238,12.94Z" transform="translate(-265.412 -194.186)"/><path class="e" d="M826.553,247.807c-.21-.033-.42-.078-.631-.111-3.618-.642-7.236-1.272-10.843-1.925l-.332-8.177-4.37,7.325c-9.969,3.308-19.3,1.438-28.071-2.689a79.25,79.25,0,0,1-8.409-4.636c-.891-13.829,4.7-22.682,15.1-21.753.38.034.653-.354.985-.52a.011.011,0,0,0,.008,0,.011.011,0,0,0,0-.008c.564-.266,1.14-.52,1.715-.752a25.551,25.551,0,0,1,26.821,5.2C825.613,226.519,828.8,237.683,826.553,247.807Z" transform="translate(-265.412 -194.186)"/><path class="h" d="M825.923,247.7s-6.871-25.648-36.325-31.567c-.033-.011-.144-.055-.288-.122-.088-.055-.2-.111-.31-.166.332-.188.653-.354.985-.52a.011.011,0,0,0,.008,0,.011.011,0,0,0,0-.008c.288-.266.575-.531.874-.786l.841.033S821.265,209.877,825.923,247.7Z" transform="translate(-265.412 -194.186)"/><path class="e" d="M837.254,409.374a3.913,3.913,0,0,1-4.016.65,9.313,9.313,0,0,1-3.432-2.51,32.36,32.36,0,0,1-7.918-14.271l1.273-2.264a12.428,12.428,0,0,1,7.485-13.675,7.664,7.664,0,0,1,4.722-.411,4.476,4.476,0,0,1,3.254,3.223c.49,2.421-1.527,4.608-3.57,6a25.4,25.4,0,0,1-11.956,4.278A41.192,41.192,0,0,1,836.366,402.3a9.757,9.757,0,0,1,1.755,3.446,3.923,3.923,0,0,1-.867,3.627Z" transform="translate(-265.412 -194.186)"/><path class="b" d="M544.06,705.545H933.341a1.247,1.247,0,0,0,0-2.494H544.06a1.247,1.247,0,0,0,0,2.494Z" transform="translate(-265.412 -194.186)"/><path class="i" d="M647.444,384.955v.651c-1.4-1.643-2.833-3.272-4.249-4.9l-1.785-2.04q-3.782-4.292-7.606-8.555c-2.564-2.833-5.128-5.666-7.72-8.484-.623-.68-1.246-1.36-1.884-2.04A14.662,14.662,0,0,0,622.543,358a6.15,6.15,0,0,0-2.025-1.119,5.078,5.078,0,0,0-2.606-.028c-.978.227-1.912.581-2.861.878-.978.326-1.941.637-2.918.949-1.955.637-3.9,1.275-5.85,1.912a.194.194,0,0,1-.252-.107l0-.007a.2.2,0,0,1,.142-.269c.482-.156.977-.312,1.473-.467,1.969-.651,3.923-1.289,5.892-1.926.977-.326,1.954-.637,2.932-.949a8.762,8.762,0,0,1,2.833-.567,6.409,6.409,0,0,1,4.164,1.955c.609.567,1.162,1.161,1.714,1.771l1.955,2.125q3.93,4.292,7.8,8.612t7.706,8.683l.552.637C644.626,381.7,646.028,383.326,647.444,384.955Z" transform="translate(-265.412 -194.186)"/><path class="i" d="M622.324,360.61a4.788,4.788,0,0,0-2.063-1.533l-.805.028a85.053,85.053,0,0,0,24.329,24.758Z" transform="translate(-265.412 -194.186)"/><path class="b" d="M754.254,462.841l-32.088-171.81a12.726,12.726,0,0,0-12.086-10.3q-.389-.009-.778,0l-21.859.784-2.353.086L674.181,282l-2.353.081-7.017.254-141.5,5.08c-.213.012-.432.012-.646.006l-31.707-.663-11.734-.242-.375-.006-8.661-.185-75.465-1.568-20.008-.421-9.866-.2-2.364-.052-11.25-.231-2.358-.052-11.509-.236-2.358-.052-12.645-.265-1.983-.04-11.278-.236-1.782-.035h-.259a12.692,12.692,0,0,0-12.466,10.6L265.579,471.812a12.624,12.624,0,0,0,12.46,14.657H444.7a11.549,11.549,0,0,1,6.815,2.249l3.16,2.341a12.739,12.739,0,0,0,7.513,2.479,192.439,192.439,0,0,1,98.218,0,12.548,12.548,0,0,0,8.932-3.7,11.457,11.457,0,0,1,7.5-3.338l165.669-8.73a12.625,12.625,0,0,0,11.751-14.928Z" transform="translate(-265.412 -194.186)"/><path class="a" d="M708.853,436.049a21.976,21.976,0,0,1-22.75,21.16c-9.62-.34-21.1-.51-33.56-.25-40.69.87-91.81,6.47-122.56,26.61a21.967,21.967,0,0,1-13.05,3.58c-.34-.02-.67-.04-1.01-.07a21.928,21.928,0,0,1-12.84-5.69c-16.94-15.5-55.79-34.27-144.72-35.59-.37,0-.73-.02-1.09-.04a21.964,21.964,0,0,1-20.54-23.32l8.74-138.71,1.31-20.79,2.3-36.37a14.443,14.443,0,0,1,14.4-13.53h.09l52.98.31q33.48,1.515,55.46,8.53a95.875,95.875,0,0,1,14.56,5.86,55.974,55.974,0,0,1,16.94,12.65,19.119,19.119,0,0,0,11.5,6.21,18.275,18.275,0,0,0,2.08.19,19.057,19.057,0,0,0,11.53-3.3c34.61-23.19,105.14-24.95,144.09-23.95a21.931,21.931,0,0,1,21.36,20.31l1.58,20.69,1.57,20.63,9.06,119.23,2.52,33.17A22.794,22.794,0,0,1,708.853,436.049Z" transform="translate(-265.412 -194.186)"/><path class="j" d="M371.544,261.848c31.927-10.186,67.546-7.49,97.793,6.861a128.765,128.765,0,0,1,24.3,14.968c2.128,1.67,5.155-1.317,3-3a139.187,139.187,0,0,0-97.7-28.652,133.7,133.7,0,0,0-28.523,5.73c-2.6.828-1.486,4.932,1.13,4.1Z" transform="translate(-265.412 -194.186)"/><path class="j" d="M547.228,285.325c29.684-15.6,65.229-19,97.5-10.148a128.521,128.521,0,0,1,26.512,10.541c2.412,1.287,4.561-2.38,2.145-3.669-30.76-16.413-67.684-20.192-101.274-11.042a133.659,133.659,0,0,0-27.031,10.649C542.661,282.929,544.807,286.6,547.228,285.325Z" transform="translate(-265.412 -194.186)"/><path class="j" d="M547.228,313.654c29.684-15.6,65.229-19,97.5-10.148a128.516,128.516,0,0,1,26.512,10.541c2.412,1.287,4.561-2.38,2.145-3.669-30.76-16.413-67.684-20.192-101.274-11.042a133.659,133.659,0,0,0-27.031,10.649c-2.422,1.273-.276,4.942,2.145,3.669Z" transform="translate(-265.412 -194.186)"/><path class="j" d="M674.428,340.462a1.821,1.821,0,0,0-1.047-1.761,139.35,139.35,0,0,0-80.222-15.026c-.173.014-.333.042-.52.055h-.007a4.255,4.255,0,0,0-.506.076,134.223,134.223,0,0,0-47.042,14.5,2.144,2.144,0,0,0-1.047,1.845V393a2.144,2.144,0,0,0,2.691,2.039c.652-.187,1.3-.367,1.969-.541a210.618,210.618,0,0,1,45.35-7.094l.992-.042a237.569,237.569,0,0,1,37.41,1.345,7.8,7.8,0,0,1,.777.083c.638.069,1.29.146,1.928.229.257.028.5.055.735.1,2.482.312,4.944.666,7.413,1.047q5.346.853,10.693,1.9c.222.042.451.1.68.139,5.721,1.137,11.414,2.455,17.079,3.911a2.153,2.153,0,0,0,2.69-2.052V340.545a.176.176,0,0,0-.014-.083Z" transform="translate(-265.412 -194.186)"/><path class="k" d="M596.49,326.556a6.988,6.988,0,0,0-5.007-.44,5.934,5.934,0,0,0-3.335,3.136,15.083,15.083,0,0,0-1.1,4.314c-.088.584-.094,1.321.493,1.593a1.243,1.243,0,0,0,1.261-.25,3.728,3.728,0,0,0,.738-1.03,11.215,11.215,0,0,1,9.474-5.151l1.569.625a18.58,18.58,0,0,0-4.1-2.8Z" transform="translate(-265.412 -194.186)"/><path class="i" d="M613.469,338.736c-1.217-1.792-2.66-3.706-4.919-4.291-2.616-.678-5.3.669-7.584,2a221.548,221.548,0,0,0-19.666,12.9l.007.07,14.675-.9c3.534-.217,7.19-.464,10.313-1.952a9.726,9.726,0,0,1,3.684-1.372,6.156,6.156,0,0,1,4.267,2.056c6.763,6.411,8.721,16.214,16.308,21.846a206.077,206.077,0,0,0-17.085-30.351Z" transform="translate(-265.412 -194.186)"/><path class="i" d="M595.04,387.357l-.991.043c-2.365-.85-4.787-1.6-7.238-2.252-1.587-.425-3.2-.807-4.816-1.133-1.827-.4-3.668-.708-5.51-.977a88.122,88.122,0,0,0-10.581-.892.192.192,0,1,1,0-.382c.453,0,.906.014,1.345.043a88.23,88.23,0,0,1,10.595,1.034c1.827.3,3.654.652,5.467,1.048,1.643.368,3.286.779,4.9,1.232Q591.676,386.1,595.04,387.357Z" transform="translate(-265.412 -194.186)"/><path class="i" d="M635.89,389.114c-.241-.043-.482-.071-.737-.1-.977-.807-1.969-1.572-3-2.323-1.289-.935-2.62-1.813-3.98-2.634a70.664,70.664,0,0,0-9.405-4.787,93.778,93.778,0,0,0-15.893-5.015,158.145,158.145,0,0,0-18.8-2.946c-6.317-.652-12.663-1.048-19.008-1.445-.269-.014-.283-.411,0-.4.793.057,1.587.1,2.394.156,6.416.4,12.833.85,19.207,1.572a146.419,146.419,0,0,1,18.767,3.258,91.279,91.279,0,0,1,15.382,5.283,69.934,69.934,0,0,1,8.272,4.4c1.685,1.062,3.314,2.2,4.872,3.4C634.615,388.051,635.266,388.561,635.89,389.114Z" transform="translate(-265.412 -194.186)"/><path class="i" d="M633.227,388.788a7.7,7.7,0,0,0-.779-.085c-.3-.241-.609-.467-.921-.694a64.781,64.781,0,0,0-6.813-4.263,72.171,72.171,0,0,0-6.586-3.159,92.528,92.528,0,0,0-15.892-5.014,158.1,158.1,0,0,0-18.8-2.946c-6.317-.652-12.663-1.048-19.008-1.445-.269-.028-.269-.411,0-.4.807.057,1.6.1,2.394.156,6.416.4,12.833.85,19.207,1.572a146.4,146.4,0,0,1,18.768,3.258,90.807,90.807,0,0,1,15.382,5.283c1.87.85,3.7,1.77,5.482,2.776a58,58,0,0,1,7.564,4.957Z" transform="translate(-265.412 -194.186)"/><path class="i" d="M654.671,392.2c-.227-.043-.453-.1-.68-.142-.255-.269-.5-.552-.737-.836q-1.827-2.1-3.612-4.249c-4.688-5.581-9.136-11.331-13.328-17.2q-5.4-7.521-10.241-15.34c-1.544-2.465-3.031-4.957-4.49-7.479q-1.7-2.932-3.315-5.878c-.312-.567-.609-1.133-.906-1.7-.694-1.332-1.388-2.677-2.125-3.994a11.287,11.287,0,0,0-3.428-4.079,5.015,5.015,0,0,0-2.436-.836,7.366,7.366,0,0,0-3.513.906,114.451,114.451,0,0,0-22.28,13.668,107.687,107.687,0,0,0-18.1,17.889c-.17.2-.538.014-.383-.2.637-.793,1.289-1.586,1.94-2.365A108.583,108.583,0,0,1,584.162,344.1c.014-.014.042-.028.057-.042.552-.439,1.1-.864,1.671-1.275a115.906,115.906,0,0,1,10.935-7.139q2.889-1.678,5.906-3.187c.5-.255,1.006-.51,1.515-.751s1.02-.5,1.53-.737a8.338,8.338,0,0,1,3.244-.892c3.938-.057,5.963,3.909,7.365,6.586.439.836.893,1.671,1.332,2.507,1.7,3.159,3.47,6.3,5.312,9.4,1.119,1.926,2.28,3.839,3.456,5.737,1.685,2.705,3.413,5.382,5.212,8.045a.014.014,0,0,0,.014.014h0c2.082,3.144,4.249,6.232,6.487,9.306q5.758,7.882,12.068,15.411Q652.434,389.68,654.671,392.2Z" transform="translate(-265.412 -194.186)"/><path class="k" d="M604.138,329.646l-.392.171a10.691,10.691,0,0,0-8.636-5.229c-5.8-.412-10.893,3.453-11.356,8.614a8.531,8.531,0,0,0,1.724,5.938l-.364.215a8.884,8.884,0,0,1-1.8-6.184c.482-5.375,5.787-9.4,11.826-8.97a11.133,11.133,0,0,1,8.993,5.445Z" transform="translate(-265.412 -194.186)"/><path class="i" d="M575.484,340.089a10.459,10.459,0,0,0-9.525.606,150.165,150.165,0,0,1,15.456,3.211C579.307,342.806,577.658,341.083,575.484,340.089Z" transform="translate(-265.412 -194.186)"/><path class="i" d="M565.93,340.69l-.573.415c.194-.145.4-.281.6-.41Z" transform="translate(-265.412 -194.186)"/><path class="i" d="M583.189,343.1c-.228-.227-.455-.453-.685-.68a19.89,19.89,0,0,0-6.249-4.572,10,10,0,0,0-3.8-.784,11.986,11.986,0,0,0-3.944.766c-.594.211-1.174.451-1.746.706-.653.293-1.3.6-1.934.92q-1.8.886-3.551,1.85-3.486,1.918-6.754,4.128-1.694,1.146-3.318,2.368-1.51,1.135-2.96,2.33c-.207.17-.515-.1-.309-.275.255-.211.512-.421.77-.628q1.091-.878,2.218-1.723,2.054-1.543,4.214-2.966,3.359-2.215,6.95-4.129,1.794-.956,3.638-1.832c.371-.176.747-.348,1.126-.512a19.279,19.279,0,0,1,2.678-.97,10.645,10.645,0,0,1,4.044-.354,11.419,11.419,0,0,1,3.731,1.149,24.482,24.482,0,0,1,6.186,4.932C583.684,343.006,583.377,343.282,583.189,343.1Z" transform="translate(-265.412 -194.186)"/><path class="j" d="M371.544,290.177c31.927-10.186,67.546-7.49,97.793,6.861a128.769,128.769,0,0,1,24.3,14.968c2.128,1.67,5.155-1.317,3-3a139.187,139.187,0,0,0-97.7-28.652,133.7,133.7,0,0,0-28.523,5.73c-2.6.828-1.486,4.932,1.13,4.1Z" transform="translate(-265.412 -194.186)"/><path class="j" d="M371.544,318.505c31.927-10.186,67.546-7.49,97.793,6.861a128.767,128.767,0,0,1,24.3,14.968c2.127,1.67,5.155-1.317,3-3a139.187,139.187,0,0,0-97.7-28.652,133.7,133.7,0,0,0-28.523,5.73c-2.6.828-1.486,4.932,1.13,4.1Z" transform="translate(-265.412 -194.186)"/><path class="j" d="M371.544,346.833c31.927-10.186,67.546-7.49,97.793,6.861a128.767,128.767,0,0,1,24.3,14.968c2.128,1.67,5.155-1.317,3-3a139.187,139.187,0,0,0-97.7-28.652,133.7,133.7,0,0,0-28.523,5.73c-2.6.828-1.486,4.932,1.13,4.1Z" transform="translate(-265.412 -194.186)"/><path class="j" d="M371.544,375.161c31.927-10.186,67.546-7.49,97.793,6.861a128.764,128.764,0,0,1,24.3,14.968c2.127,1.67,5.155-1.317,3-3a139.187,139.187,0,0,0-97.7-28.652,133.7,133.7,0,0,0-28.523,5.73c-2.6.828-1.486,4.932,1.13,4.1Z" transform="translate(-265.412 -194.186)"/><path class="j" d="M371.544,403.49c31.927-10.186,67.546-7.49,97.793,6.861a128.762,128.762,0,0,1,24.3,14.968c2.127,1.67,5.155-1.317,3-3a139.187,139.187,0,0,0-97.7-28.652,133.7,133.7,0,0,0-28.523,5.73c-2.6.828-1.486,4.932,1.13,4.1Z" transform="translate(-265.412 -194.186)"/><path class="f" d="M486.573,227.739v67.93c0,1.35-2.36,2.48-5.54,2.79a.22.22,0,0,0-.08.01c-.53.04-1.09.07-1.66.07a14.571,14.571,0,0,1-5.15-.84c-.15-.06-.3-.13-.45-.19-.14-.08-.29-.15-.43-.23-.79-.47-1.25-1.02-1.25-1.61v-73.79a95.875,95.875,0,0,1,14.56,5.86Z" transform="translate(-265.412 -194.186)"/><rect class="c" width="2.08" height="242.235" transform="translate(249.599 49.308)"/><path class="d" d="M743.313,409.32a10.132,10.132,0,0,0,8.849-12.771l43.177-20.155,25.994-42.049L800.9,326.1,783.365,359.98l-44.384,29.577a10.187,10.187,0,0,0,4.332,19.763Z" transform="translate(-265.412 -194.186)"/><path class="f" d="M837.369,294.063s5.089,1.661-.5,11.531c-4.471,7.9-26.252,53.418-35.142,62.355a7.96,7.96,0,0,1-.992,9.708l-20.523-16.286c-.392-5.923,3.528-6.511,5.851-6.311l4.721-16.733,16.467-41.279,26.458-4.251Z" transform="translate(-265.412 -194.186)"/><path class="e" d="M837.812,216.694c.97-3.923,8.01-6.82-4.049-12.3-2.926-1.329-2.805-5.907-5.281-7.957s-6.1-3-8.978-1.568c-2.569,1.28-4.017,4.175-4.326,7.029a25.892,25.892,0,0,0,.981,8.512l-.234.342,14.33,10.965c1.755,1.343,4.05,2.75,6.017,1.742C838.5,222.321,837.211,219.123,837.812,216.694Z" transform="translate(-265.412 -194.186)"/></g></svg>