<svg xmlns="http://www.w3.org/2000/svg" width="340" height="593" viewBox="0 0 340 593"><defs><style>.a{fill:#3f3d56;}.b{fill:#ccc;}.c{fill:#00a110;}</style></defs><g transform="translate(-415 -2003)"><path class="a" d="M499.593,603.574a24.3,24.3,0,0,1,9.743-30.085c1.647-1,.141-3.6-1.514-2.59A27.008,27.008,0,0,0,497,605.088c.757,1.77,3.342.243,2.59-1.514Z" transform="translate(183.833 1850)"/><path class="a" d="M500.452,607.609c-4.046-7.168-3.094-15.747-1.639-23.5,1.519-8.092,3.511-16.309,1.788-24.539a22.527,22.527,0,0,0-5.353-10.734c-1.311-1.423-3.428.7-2.121,2.121,5.089,5.527,5.679,13.545,4.853,20.665-.974,8.4-3.733,16.583-3.39,25.117a27.2,27.2,0,0,0,3.272,12.382,1.5,1.5,0,0,0,2.59-1.514Z" transform="translate(183.833 1850)"/><path class="b" d="M522.167,630.5h-51a4.505,4.505,0,0,1-4.5-4.5V611.02a14.536,14.536,0,0,1,14.52-14.52h7.48a1.5,1.5,0,0,0,1.5-1.5v-7a2.5,2.5,0,0,1,2.5-2.5h8a2.5,2.5,0,0,1,2.5,2.5v7a1.5,1.5,0,0,0,1.5,1.5h7.48a14.536,14.536,0,0,1,14.52,14.52V626A4.505,4.505,0,0,1,522.167,630.5Z" transform="translate(183.833 1850)"/><path class="c" d="M497.451,540.54c1.074,5.7-.256,10.733-2.969,11.244s-5.784-3.694-6.858-9.393,2.229-15.175,2.229-15.175S496.377,534.841,497.451,540.54Z" transform="translate(183.833 1850)"/><path class="c" d="M518.045,567.052c-3.4,4.7-7.97,7.193-10.207,5.573s-1.294-6.74,2.107-11.437,12.553-8.814,12.553-8.814S521.445,562.355,518.045,567.052Z" transform="translate(183.833 1850)"/><path class="a" d="M405.593,243.574a24.3,24.3,0,0,1,9.743-30.085c1.647-1,.142-3.6-1.514-2.59A27.008,27.008,0,0,0,403,245.088c.757,1.77,3.342.243,2.59-1.514Z" transform="translate(183.833 1850)"/><path class="a" d="M406.452,247.609c-4.046-7.168-3.094-15.747-1.639-23.5,1.519-8.092,3.511-16.309,1.788-24.539a22.527,22.527,0,0,0-5.353-10.734c-1.311-1.423-3.428.7-2.121,2.121,5.089,5.527,5.679,13.545,4.853,20.665-.974,8.4-3.733,16.583-3.39,25.117a27.2,27.2,0,0,0,3.272,12.382,1.5,1.5,0,0,0,2.591-1.514Z" transform="translate(183.833 1850)"/><path class="b" d="M428.167,270.5h-51a4.5,4.5,0,0,1-4.5-4.5V251.02a14.536,14.536,0,0,1,14.52-14.52h7.48a1.5,1.5,0,0,0,1.5-1.5v-7a2.5,2.5,0,0,1,2.5-2.5h8a2.5,2.5,0,0,1,2.5,2.5v7a1.5,1.5,0,0,0,1.5,1.5h7.48a14.536,14.536,0,0,1,14.52,14.52V266a4.5,4.5,0,0,1-4.5,4.5Z" transform="translate(183.833 1850)"/><path class="c" d="M403.451,180.54c1.074,5.7-.256,10.733-2.969,11.244s-5.784-3.694-6.858-9.393,2.229-15.175,2.229-15.175S402.377,174.841,403.451,180.54Z" transform="translate(183.833 1850)"/><path class="c" d="M424.045,207.052c-3.4,4.7-7.97,7.193-10.207,5.573s-1.294-6.74,2.107-11.437,12.553-8.814,12.553-8.814S427.445,202.355,424.045,207.052Z" transform="translate(183.833 1850)"/><rect class="c" width="41" height="15" transform="translate(447 2275)"/><rect class="c" width="41" height="15" transform="translate(447 2324)"/><path class="a" d="M554.167,746h-306a17.019,17.019,0,0,1-17-17V170a17.019,17.019,0,0,1,17-17h306a17.019,17.019,0,0,1,17,17V729A17.019,17.019,0,0,1,554.167,746Zm-306-591a15.017,15.017,0,0,0-15,15V729a15.017,15.017,0,0,0,15,15h306a15.017,15.017,0,0,0,15-15V170a15.017,15.017,0,0,0-15-15Z" transform="translate(183.833 1850)"/><rect class="a" width="338" height="2" transform="translate(416 2118.453)"/><rect class="a" width="338" height="2" transform="translate(416 2238.484)"/><rect class="a" width="338" height="2" transform="translate(416 2358.516)"/><rect class="a" width="338" height="2" transform="translate(416 2478.547)"/><path class="a" d="M301.167,511h-34a5.006,5.006,0,0,1-5-5V409a5.006,5.006,0,0,1,5-5h34a5.006,5.006,0,0,1,5,5v97A5.006,5.006,0,0,1,301.167,511Zm-34-105a3,3,0,0,0-3,3v97a3,3,0,0,0,3,3h34a3,3,0,0,0,3-3V409a3,3,0,0,0-3-3Z" transform="translate(183.833 1850)"/><rect class="c" width="41" height="15" transform="translate(510 2275)"/><rect class="c" width="41" height="15" transform="translate(510 2324)"/><path class="a" d="M364.167,511h-34a5.006,5.006,0,0,1-5-5V409a5.006,5.006,0,0,1,5-5h34a5.006,5.006,0,0,1,5,5v97a5.006,5.006,0,0,1-5,5Zm-34-105a3,3,0,0,0-3,3v97a3,3,0,0,0,3,3h34a3,3,0,0,0,3-3V409a3,3,0,0,0-3-3Z" transform="translate(183.833 1850)"/><rect class="c" width="41" height="15" transform="translate(610 2154)"/><rect class="c" width="41" height="15" transform="translate(610 2203)"/><path class="a" d="M464.167,390h-34a5.006,5.006,0,0,1-5-5V288a5.006,5.006,0,0,1,5-5h34a5.006,5.006,0,0,1,5,5v97a5.006,5.006,0,0,1-5,5Zm-34-105a3,3,0,0,0-3,3v97a3,3,0,0,0,3,3h34a3,3,0,0,0,3-3V288a3,3,0,0,0-3-3Z" transform="translate(183.833 1850)"/><rect class="c" width="41" height="15" transform="translate(673 2154)"/><rect class="c" width="41" height="15" transform="translate(673 2203)"/><path class="a" d="M527.167,390h-34a5.006,5.006,0,0,1-5-5V288a5.006,5.006,0,0,1,5-5h34a5.006,5.006,0,0,1,5,5v97A5.006,5.006,0,0,1,527.167,390Zm-34-105a3,3,0,0,0-3,3v97a3,3,0,0,0,3,3h34a3,3,0,0,0,3-3V288a3,3,0,0,0-3-3Z" transform="translate(183.833 1850)"/><rect class="c" width="41" height="15" transform="matrix(0.936, -0.352, 0.352, 0.936, 562.907, 2280.465)"/><rect class="c" width="41" height="15" transform="matrix(0.936, -0.352, 0.352, 0.936, 580.143, 2326.333)"/><path class="a" d="M411.311,509.883a5.009,5.009,0,0,1-4.678-3.244l-34.12-90.8a5.006,5.006,0,0,1,2.922-6.439l31.827-11.959a5,5,0,0,1,6.439,2.922l34.12,90.8A5.006,5.006,0,0,1,444.9,497.6h0l-31.827,11.96A5,5,0,0,1,411.311,509.883Zm-2.289-110.765a3,3,0,0,0-1.057.193l-31.827,11.96a3,3,0,0,0-1.753,3.864l34.12,90.8a3,3,0,0,0,3.864,1.753L444.2,495.729a3,3,0,0,0,1.753-3.864l-34.12-90.8a3.006,3.006,0,0,0-2.807-1.946Z" transform="translate(183.833 1850)"/><rect class="c" width="41" height="15" transform="matrix(0.936, -0.352, 0.352, 0.936, 424.908, 2161.465)"/><rect class="c" width="41" height="15" transform="matrix(0.936, -0.352, 0.352, 0.936, 442.144, 2207.333)"/><path class="a" d="M273.311,390.883a5.009,5.009,0,0,1-4.678-3.244l-34.12-90.8a5.006,5.006,0,0,1,2.922-6.439l31.827-11.96a5,5,0,0,1,6.439,2.922l34.12,90.8A5.006,5.006,0,0,1,306.9,378.6h0l-31.827,11.96a5,5,0,0,1-1.761.322Zm-2.289-110.765a3.005,3.005,0,0,0-1.057.193l-31.827,11.96a3,3,0,0,0-1.753,3.864l34.12,90.8a3,3,0,0,0,3.864,1.753L306.2,376.729a3,3,0,0,0,1.753-3.864l-34.12-90.8a3.006,3.006,0,0,0-2.807-1.946Z" transform="translate(183.833 1850)"/></g></svg>